<svg width="18" height="18" viewBox="0 0 18 18" fill="none" xmlns="http://www.w3.org/2000/svg">
<rect width="18" height="18" rx="9" fill="#FA5151"/>
<path d="M9.01013 14.168C7.35413 14.168 6.13013 13.184 6.13013 11.804C6.13013 10.64 6.89813 9.86 7.70213 9.428V9.368C7.05413 8.9 6.52613 8.24 6.52613 7.304C6.52613 5.924 7.60613 5.024 9.05813 5.024C10.5821 5.024 11.5421 5.984 11.5421 7.364C11.5421 8.264 10.9301 9.032 10.3781 9.44V9.5C11.1701 9.944 11.8661 10.64 11.8661 11.84C11.8661 13.148 10.7261 14.168 9.01013 14.168ZM9.59813 9.092C10.1141 8.6 10.3781 8.036 10.3781 7.436C10.3781 6.632 9.88613 6.02 9.02213 6.02C8.30213 6.02 7.76213 6.512 7.76213 7.304C7.76213 8.264 8.60213 8.708 9.59813 9.092ZM9.04613 13.16C9.94613 13.16 10.5581 12.632 10.5581 11.792C10.5581 10.724 9.58613 10.316 8.38613 9.824C7.77413 10.244 7.35413 10.904 7.35413 11.66C7.35413 12.548 8.08613 13.16 9.04613 13.16Z" fill="white"/>
</svg>
