<svg width="32" height="32" viewBox="0 0 32 32" fill="none" xmlns="http://www.w3.org/2000/svg">
<path fill-rule="evenodd" clip-rule="evenodd" d="M2.66667 16C2.66667 23.3638 8.6362 29.3334 16 29.3334C23.3638 29.3334 29.3333 23.3638 29.3333 16C29.3333 8.63622 23.3638 2.66669 16 2.66669C8.6362 2.66669 2.66667 8.63622 2.66667 16ZM27.7333 16C27.7333 22.4802 22.4801 27.7334 16 27.7334C9.51986 27.7334 4.26667 22.4802 4.26667 16C4.26667 9.51988 9.51986 4.26669 16 4.26669C22.4801 4.26669 27.7333 9.51988 27.7333 16ZM22.6667 15.2V16.8H16.8V22.6667H15.2V16.8H9.33333V15.2H15.2V9.33335H16.8V15.2H22.6667Z" fill="black" fill-opacity="0.9"/>
</svg>
