<svg width="32" height="32" viewBox="0 0 32 32" fill="none" xmlns="http://www.w3.org/2000/svg">
<path fill-rule="evenodd" clip-rule="evenodd" d="M2.66667 16C2.66667 23.3638 8.6362 29.3334 16 29.3334C23.3638 29.3334 29.3333 23.3638 29.3333 16C29.3333 8.63622 23.3638 2.66669 16 2.66669C8.6362 2.66669 2.66667 8.63622 2.66667 16ZM27.7333 16C27.7333 22.4802 22.4801 27.7334 16 27.7334C9.51986 27.7334 4.26667 22.4802 4.26667 16C4.26667 9.51988 9.51986 4.26669 16 4.26669C22.4801 4.26669 27.7333 9.51988 27.7333 16ZM24 16.6667C24 21.085 20.4183 24.6667 16 24.6667C11.5817 24.6667 8 21.085 8 16.6667H24ZM22.1984 18.2667C21.4879 21.0271 18.9821 23.0667 16 23.0667C13.0179 23.0667 10.5121 21.0271 9.80163 18.2667H22.1984ZM11.3333 14C12.4379 14 13.3333 13.1046 13.3333 12C13.3333 10.8955 12.4379 10 11.3333 10C10.2288 10 9.33333 10.8955 9.33333 12C9.33333 13.1046 10.2288 14 11.3333 14ZM22.6667 12C22.6667 13.1046 21.7712 14 20.6667 14C19.5621 14 18.6667 13.1046 18.6667 12C18.6667 10.8955 19.5621 10 20.6667 10C21.7712 10 22.6667 10.8955 22.6667 12Z" fill="black" fill-opacity="0.9"/>
</svg>
