<svg width="26" height="26" viewBox="13 7 26 26" fill="none" xmlns="http://www.w3.org/2000/svg">
<path fill-rule="evenodd" clip-rule="evenodd" d="M35.6833 29.1V28.5347C35.6833 28.2671 35.4088 27.8284 35.1698 27.7118L28.566 24.4905C26.785 23.6218 26.3448 21.5201 27.6209 20.0074L28.0427 19.5074C28.6859 18.745 29.2667 17.1585 29.2667 16.1619V14.1669C29.2667 12.3641 27.8032 10.9 26 10.9C24.199 10.9 22.7333 12.3644 22.7333 14.1662V16.1608C22.7333 17.1599 23.3117 18.7406 23.9573 19.5057L24.3791 20.0056C25.6577 21.5212 25.2128 23.6209 23.4342 24.4889L16.8304 27.7114C16.5932 27.8272 16.3167 28.2701 16.3167 28.5347V29.1H35.6833ZM14.9167 29.3333V28.5347C14.9167 27.7354 15.4978 26.8039 16.2165 26.4532L22.8202 23.2307C23.7779 22.7633 24.0006 21.7281 23.309 20.9084L22.8872 20.4085C22.029 19.3913 21.3333 17.4911 21.3333 16.1608V14.1662C21.3333 11.5891 23.4279 9.5 26 9.5C28.5773 9.5 30.6667 11.5918 30.6667 14.1669V16.1619C30.6667 17.4908 29.9678 19.3967 29.1128 20.4102L28.691 20.9102C28.0032 21.7254 28.2181 22.7631 29.1798 23.2323L35.7836 26.4535C36.5014 26.8036 37.0833 27.7294 37.0833 28.5347V29.3333C37.0833 29.9777 36.561 30.5 35.9167 30.5H16.0833C15.439 30.5 14.9167 29.9777 14.9167 29.3333Z" fill="black" fill-opacity="0.9"/>
</svg>
