<svg width="26" height="26" viewBox="13 8.5 26 26" fill="none" xmlns="http://www.w3.org/2000/svg">
<path fill-rule="evenodd" clip-rule="evenodd" d="M22.112 27.3125L22.6251 27.4611C23.7 27.7723 24.8359 27.9333 26 27.9333C31.716 27.9333 36.2667 24.0653 36.2667 19.4167C36.2667 14.7681 31.716 10.9 26 10.9C20.284 10.9 15.7333 14.7681 15.7333 19.4167C15.7333 21.8386 16.9664 24.1138 19.1174 25.7299L19.7598 26.2126L19.4856 28.5719L22.112 27.3125ZM26 29.3333C24.6828 29.3333 23.4167 29.1478 22.2357 28.8058L18.7556 30.4746C18.6562 30.5222 18.5454 30.5407 18.436 30.528C18.116 30.4908 17.8867 30.2012 17.9239 29.8812L18.2764 26.8492C15.8582 25.0322 14.3333 22.3758 14.3333 19.4167C14.3333 13.9398 19.5567 9.5 26 9.5C32.4433 9.5 37.6667 13.9398 37.6667 19.4167C37.6667 24.8935 32.4433 29.3333 26 29.3333Z" fill="black" fill-opacity="0.9"/>
</svg>
