<svg width="54" height="36" viewBox="0 0 54 36" fill="none" xmlns="http://www.w3.org/2000/svg">
<path d="M25.25 9.5C27.8273 9.5 29.917 11.5919 29.917 14.167V16.1621C29.9169 17.4911 29.2172 19.3967 28.3623 20.4102L27.9414 20.9102C27.2536 21.7254 27.468 22.7633 28.4297 23.2324L35.0332 26.4531C35.7511 26.8033 36.333 27.7298 36.333 28.5352V29.5C36.333 30.0523 35.8853 30.5 35.333 30.5H15.167C14.6147 30.5 14.167 30.0523 14.167 29.5V28.5352C14.167 27.7359 14.7482 26.8038 15.4668 26.4531L22.0703 23.2305C23.0279 22.7631 23.2502 21.7279 22.5586 20.9082L22.1377 20.4082C21.2796 19.3911 20.5831 17.4914 20.583 16.1611V14.166C20.5831 11.589 22.678 9.5 25.25 9.5ZM39.833 24.667H36.333V22.917H39.833V24.667ZM39.833 21.167H34V19.417H39.833V21.167ZM39.833 17.667H31.667V15.917H39.833V17.667Z" fill="#38CD7F"/>
</svg>
